<svg width="141" height="35" viewBox="0 0 141 35" fill="none" xmlns="http://www.w3.org/2000/svg">
<g clip-path="url(#clip0_1_118)">
<path fill-rule="evenodd" clip-rule="evenodd" d="M1.80348 16.5271C1.99332 13.2999 3.17978 10.3101 5.07811 7.88968H2.89503C2.89503 7.93714 2.84757 7.9846 2.84757 7.9846C2.84757 8.03206 2.80011 8.07952 2.80011 8.07952C2.80011 8.12698 2.75265 8.17443 2.75265 8.17443C2.75265 8.22189 2.70519 8.26935 2.70519 8.26935C2.70519 8.31681 2.65773 8.36427 2.65773 8.36427C2.65773 8.41173 2.61028 8.45918 2.61028 8.45918C2.61028 8.50664 2.56282 8.5541 2.56282 8.5541C2.56282 8.60156 2.51536 8.64902 2.51536 8.64902C2.51536 8.69648 2.4679 8.74393 2.4679 8.74393C2.4679 8.79139 2.42044 8.83885 2.42044 8.83885C2.42044 8.88631 2.37298 8.93377 2.37298 8.93377C2.37298 8.98123 2.32553 9.02868 2.32553 9.02868C2.32553 9.07614 2.27807 9.1236 2.27807 9.1236C2.27807 9.17106 2.23061 9.21852 2.23061 9.21852C2.23061 9.26598 2.18315 9.31343 2.18315 9.31343C2.18315 9.36089 2.13569 9.40835 2.13569 9.40835C2.13569 9.45581 2.08823 9.50327 2.08823 9.50327C2.08823 9.55073 2.04078 9.59818 2.04078 9.59818C2.04078 9.64564 1.99332 9.6931 1.99332 9.6931C1.99332 9.74056 1.94586 9.78802 1.94586 9.78802C1.94586 9.83548 1.8984 9.88293 1.8984 9.88293C1.8984 9.93039 1.85094 9.97785 1.85094 9.97785C1.85094 10.0253 1.80348 10.0728 1.80348 10.0728C1.80348 10.1202 1.75603 10.1677 1.75603 10.2151C1.75603 10.2626 1.70857 10.3101 1.70857 10.3575C1.70857 10.405 1.66111 10.4524 1.66111 10.4999C1.66111 10.5474 1.61365 10.5948 1.61365 10.6423C1.61365 10.6897 1.56619 10.7372 1.56619 10.7846C1.56619 10.8321 1.51873 10.8796 1.51873 10.927C1.51873 10.9745 1.47128 11.0219 1.47128 11.0694C1.47128 11.1169 1.42382 11.1643 1.42382 11.2118C1.42382 11.2592 1.37636 11.3067 1.37636 11.3541C1.37636 11.4016 1.3289 11.4491 1.3289 11.4965C1.3289 11.544 1.28144 11.5914 1.28144 11.6389C1.28144 11.6864 1.23398 11.7338 1.23398 11.7813C1.23398 11.8287 1.18653 11.8762 1.18653 11.9236C1.18653 11.9711 1.13907 12.0186 1.13907 12.066C1.13907 12.1135 1.09161 12.1609 1.09161 12.2084C1.09161 12.2559 1.04415 12.3033 1.04415 12.3508C1.04415 12.3982 0.996692 12.4457 0.996692 12.4931C0.996692 12.5406 0.949234 12.5881 0.949234 12.6355C0.949234 12.683 0.901776 12.7304 0.901776 12.7779C0.901776 12.8254 0.901776 12.8728 0.854317 12.9203C0.854317 12.9677 0.854317 13.0152 0.806859 13.0626C0.806859 13.1101 0.806859 13.1576 0.759401 13.205C0.759401 13.2525 0.759401 13.2999 0.711942 13.3474C0.711942 13.3949 0.711942 13.4423 0.664484 13.4898C0.664484 13.5372 0.664484 13.5847 0.617025 13.6321C0.617025 13.6796 0.617025 13.7271 0.569567 13.7745C0.569567 13.822 0.569567 13.8694 0.522109 13.9169C0.522109 13.9644 0.522109 14.0118 0.47465 14.0593C0.47465 14.1067 0.47465 14.1542 0.427192 14.2016C0.427192 14.2491 0.427192 14.2966 0.379734 14.344C0.379734 14.3915 0.379734 14.4389 0.332275 14.4864C0.332275 14.5339 0.332275 14.5813 0.332275 14.6288C0.332275 14.6762 0.332275 14.7237 0.332275 14.7711C0.332275 14.8186 0.332275 14.8661 0.332275 14.9135C0.332275 14.961 0.332275 15.0084 0.332275 15.0559C0.332275 15.1034 0.332275 15.1508 0.332275 15.1983C0.332275 15.2457 0.332275 15.2932 0.332275 15.3406C0.332275 15.3881 0.332275 15.4356 0.332275 15.483C0.332275 15.5305 0.332275 15.5779 0.332275 15.6254C0.332275 15.6729 0.332275 15.7203 0.332275 15.7678C0.332275 15.8152 0.332275 15.8627 0.332275 15.9101C0.332275 16.0525 0.332275 16.8119 0.332275 17.761C0.427192 20.2763 1.04415 22.6018 2.08823 24.7374V24.6899V24.6425V24.595V24.5476V24.5001V24.4527V24.4052V24.3577V24.2628V24.1679V24.073V23.9781V23.8832V23.7882V23.6933V23.5984V23.5035V23.4086V23.3136V23.1713V23.0289V22.8865V22.7441V22.6018V22.4594V22.317V22.1746V22.0323V21.8899V21.7475V21.6051V21.4628V21.3204V21.178V21.0356V20.8933V20.7509V20.6085V20.4661V20.3238V20.1814V20.039V19.8966V19.7543V19.6119V19.4695V19.3271V19.1848V19.0424V18.9V18.7576V18.6627V18.5678V18.4729V18.378V18.2831V18.1881V18.0932V17.9983V17.9034V17.8085V17.7136V17.6661V17.6186V17.5712V17.5237V17.4763V17.4288V17.3814V17.3339V17.2864V17.239V17.1915V17.1441V17.0966V17.0491V17.0017V16.9542V16.9068V16.8593V16.8119V16.7644V16.7169V16.6695V16.622V16.5746V16.5271V16.4796V16.4322V16.3847V16.3373V16.2898V16.2424V16.1949V16.1474V16.1V16.0525V16.0051V15.9576V15.9101V15.8627V15.8152V15.7678V15.7203V15.6729L1.80348 16.5271ZM32.2717 12.2084C32.2717 12.2559 32.2717 12.2559 32.3192 12.3033C32.3192 12.3508 32.3192 12.3508 32.3667 12.3982C32.3667 12.4457 32.3667 12.4457 32.4141 12.4931C32.4141 12.5406 32.4141 12.5406 32.4616 12.5881C32.4616 12.6355 32.4616 12.6355 32.509 12.683C32.509 12.7304 32.509 12.7304 32.5565 12.7779C32.5565 12.8254 32.5565 12.8254 32.604 12.8728C32.604 12.9203 32.604 12.9203 32.6514 12.9677C32.6514 13.0152 32.6514 13.0152 32.6514 13.0626C32.6514 13.1101 32.6514 13.1101 32.6514 13.1576C32.6514 13.205 32.6514 13.205 32.6514 13.2525C32.6514 13.2999 32.6514 13.2999 32.6514 13.3474C32.6514 13.3949 32.6514 13.3949 32.6514 13.4423C32.6514 13.4898 32.6514 13.4898 32.6514 13.5372C32.6514 13.5847 32.6514 13.5847 32.6514 13.6321C32.6514 13.6796 32.6514 13.6796 32.6514 13.7271C32.6514 13.7745 32.6514 13.7745 32.6514 13.822C32.6514 13.8694 32.6514 13.8694 32.6514 13.9169C32.6514 13.9644 32.6514 13.9644 32.6514 14.0118C32.6514 14.0593 32.6514 14.0593 32.6514 14.1067C32.6514 14.1542 32.6989 14.2016 32.6989 14.2491C32.6989 14.2966 32.6989 14.2966 32.6989 14.344C32.6989 14.3915 32.6989 14.3915 32.6989 14.4389C32.6989 14.4864 32.6989 14.4864 32.6989 14.5339C32.6989 14.5813 32.6989 14.5813 32.6989 14.6288C32.6989 14.6762 32.6989 14.6762 32.6989 14.7237C32.6989 14.7711 32.6989 14.7711 32.6989 14.8186C32.6989 14.8661 32.6989 14.8661 32.6989 14.9135C32.6989 14.961 32.6989 14.961 32.6989 15.0084C32.6989 15.0559 32.6989 15.0559 32.6989 15.1034C32.6989 15.1508 32.6989 15.1508 32.6989 15.1983C32.6989 15.2457 32.6989 15.2457 32.6989 15.2932C32.6989 15.3406 32.6989 15.3406 32.6989 15.3881C32.6989 15.4356 32.6989 15.4356 32.6989 15.483C32.6989 15.5305 32.6989 15.5305 32.6989 15.5779C32.6989 15.6254 32.6989 15.6254 32.6989 15.6729C32.6989 15.7203 32.6989 15.7203 32.6989 15.7678C32.6989 15.8152 32.6989 15.8152 32.6989 15.8627C32.6989 15.9101 32.6989 15.9101 32.6989 15.9576C32.6989 16.0051 32.6989 16.0051 32.6989 16.0525C32.6989 16.1 32.6989 16.1 32.6989 16.1474C32.6989 16.1949 32.6989 16.1949 32.6989 16.2424C32.6989 16.2898 32.6989 16.2898 32.6989 16.3373C32.6989 16.3847 32.6989 16.3847 32.6989 16.4322C32.6989 16.4796 32.6989 16.4796 32.6989 16.5271C32.6989 16.5746 32.6989 16.5746 32.6989 16.622C32.6989 16.6695 32.6989 16.6695 32.6989 16.7169C32.6989 16.7644 32.6989 16.7644 32.6989 16.8119C32.6989 16.8593 32.6989 16.8593 32.6989 16.9068C32.6989 16.9542 32.6989 16.9542 32.6989 17.0017C32.6989 17.0491 32.6989 17.0491 32.6989 17.0966C32.6989 17.1441 32.6989 17.1441 32.6989 17.1915C32.6989 17.239 32.6989 17.239 32.6989 17.2864C32.6989 17.3339 32.6989 17.3339 32.6989 17.3814C32.6989 17.4288 32.6989 17.4288 32.6989 17.4763C32.6989 17.5237 32.6989 17.5237 32.6989 17.5712C32.6989 17.6186 32.6989 17.6186 32.6989 17.6661C32.6989 17.7136 32.6989 17.7136 32.6989 17.761C32.6989 17.8085 32.6989 17.8085 32.6989 17.8559C32.6989 17.9034 32.6989 17.9034 32.6989 17.9509C32.6989 17.9983 32.6989 17.9983 32.6989 18.0458C32.6989 18.0932 32.6989 18.0932 32.6989 18.1407C32.6989 18.1881 32.6989 18.1881 32.6989 18.2356V25.6391C32.6989 25.5917 32.7463 25.5442 32.7463 25.5442C32.7463 25.4967 32.7938 25.4493 32.7938 25.4493C32.7938 25.4018 32.8412 25.3544 32.8412 25.3544C32.8412 25.3069 32.8887 25.2594 32.8887 25.2594C32.8887 25.212 32.9362 25.1645 32.9362 25.1645C32.9362 25.1171 32.9836 25.0696 32.9836 25.0696C32.9836 25.0222 33.0311 24.9747 33.0311 24.9747C33.0311 24.9272 33.0785 24.8798 33.0785 24.8798C33.0785 24.8323 33.126 24.7849 33.126 24.7849C33.126 24.7374 33.1735 24.6899 33.1735 24.6899C33.1735 24.6425 33.2209 24.595 33.2209 24.595C33.2209 24.5476 33.2684 24.5001 33.2684 24.5001C33.2684 24.4526 33.3158 24.4052 33.3158 24.4052C33.3158 24.3577 33.3633 24.3103 33.3633 24.3103C33.3633 24.2628 33.4107 24.2154 33.4107 24.2154C33.4107 24.1679 33.4582 24.1204 33.4582 24.1204C33.4582 24.073 33.5057 24.0255 33.5057 24.0255C33.5057 23.9781 33.5531 23.9306 33.5531 23.9306C33.5531 23.8831 33.6006 23.8357 33.6006 23.8357C33.6006 23.7882 33.648 23.7408 33.648 23.7408C33.648 23.6933 33.6955 23.6459 33.6955 23.6459C33.6955 23.5984 33.743 23.5509 33.743 23.5509C33.743 23.5035 33.7904 23.456 33.7904 23.456C33.7904 23.4086 33.7904 23.3611 33.8379 23.3611C33.8379 23.3136 33.8379 23.2662 33.8853 23.2662C33.8853 23.2187 33.8853 23.1713 33.9328 23.1713C33.9328 23.1238 33.9328 23.0764 33.9802 23.0764C33.9802 23.0289 33.9802 22.9814 34.0277 22.9814C34.0277 22.934 34.0277 22.8865 34.0752 22.8865C34.0752 22.8391 34.0752 22.7916 34.1226 22.7916C34.1226 22.7442 34.1226 22.6967 34.1701 22.6967C34.1701 22.6492 34.1701 22.6018 34.2175 22.6018C34.2175 22.5543 34.2175 22.5069 34.265 22.4594C34.265 22.4119 34.265 22.3645 34.3125 22.317C34.3125 22.2696 34.3125 22.2221 34.3599 22.1746C34.3599 22.1272 34.3599 22.0797 34.4074 22.0323C34.4074 21.9848 34.4074 21.9374 34.4548 21.8899C34.4548 21.8424 34.4548 21.795 34.5023 21.7475C34.5023 21.7001 34.5023 21.6526 34.5023 21.6051C34.5023 21.5577 34.5023 21.5102 34.5023 21.4628C34.5023 21.4153 34.5023 21.3679 34.5023 21.3204C34.5023 21.2729 34.5023 21.2255 34.5023 21.178C34.5023 21.1306 34.5023 21.0831 34.5023 21.0356C34.5023 20.9882 34.5023 20.9407 34.5023 20.8933C34.5023 20.8458 34.5023 20.7984 34.5023 20.7509C34.5023 20.7034 34.5023 20.656 34.5023 20.6085C34.5023 20.5611 34.5023 20.5136 34.5023 20.4661C34.5023 20.4187 34.5023 20.3712 34.5023 20.3238C34.5023 20.2763 34.5023 20.2289 34.5023 20.1814C34.5023 20.1339 34.5023 20.0865 34.5023 20.039C34.5023 19.9916 34.5023 19.9441 34.5023 19.8966C34.5023 19.8492 34.5023 19.8017 34.5023 19.7543C34.5023 19.7068 34.5023 19.6594 34.5023 19.6119C34.5023 19.5644 34.5023 19.517 34.5023 19.4695C34.5023 19.4221 34.5023 19.3746 34.5023 19.3271C34.5023 19.2797 34.5023 19.2322 34.5023 19.1848C34.5023 19.1373 34.5023 19.0899 34.5023 19.0424C34.5023 18.9949 34.5023 18.9475 34.5023 18.9C34.5023 18.8526 34.5023 18.8051 34.5023 18.7576C34.5023 18.7102 34.5023 18.6627 34.5023 18.6153C34.5023 18.5678 34.5023 18.5204 34.5023 18.4729C34.5023 18.4254 34.5023 18.378 34.5023 18.3305C34.5023 18.2831 34.5023 18.2356 34.5023 18.1881C34.5023 18.1407 34.5023 18.0932 34.5023 18.0458V17.7136C34.5023 15.9101 34.2175 14.2016 33.6955 12.5406H31.7972L32.2717 12.2084ZM17.4647 15.1508C16.7054 15.1508 15.9935 15.483 15.4715 16.0051C15.0444 16.4796 14.7122 17.0966 14.6647 17.8085C14.6647 17.9034 14.6647 17.9509 14.6647 18.0458V24.9272H16.4681V18.0458C16.4681 17.7136 16.563 17.4763 16.7529 17.239C16.9427 17.0491 17.18 16.9542 17.4173 16.9542C17.702 16.9542 17.9393 17.0491 18.0817 17.239C18.2715 17.4288 18.3664 17.7136 18.3664 18.0458V29.4358H20.1699V18.0458C20.1699 17.9509 20.1699 17.9034 20.1699 17.8085C20.1224 17.0966 19.8377 16.4796 19.3631 16.0051C18.841 15.483 18.1766 15.1508 17.3698 15.1508H17.4647ZM18.4614 30.8595V35.0833C19.0783 35.0359 19.6478 34.9884 20.2648 34.8935V30.907H18.4614V30.8595ZM14.7122 26.351V34.846C15.2817 34.9409 15.8986 34.9884 16.5156 35.0359V26.351H14.7122ZM13.4782 13.5372C12.5291 14.4864 11.8647 15.8152 11.8172 17.2864C11.8172 17.3814 11.8172 17.4763 11.8172 17.5237V19.9441H13.6206V17.5237C13.6206 16.4796 14.0477 15.483 14.7596 14.8186C15.2342 14.344 15.8986 13.9644 16.6105 13.7745V11.9236C15.424 12.1135 14.3325 12.683 13.5257 13.4898L13.4782 13.5372ZM17.9868 13.7271C18.841 13.822 19.6478 14.2491 20.2173 14.8186C20.9292 15.5305 21.3563 16.4796 21.3563 17.5712V22.9814H23.1597V17.5712C23.1597 17.4763 23.1597 17.3339 23.1597 17.239C23.0648 15.8152 22.4479 14.5339 21.4987 13.5372C20.597 12.6355 19.3631 12.0186 17.9868 11.8762V13.6796V13.7271ZM21.3563 24.4052V34.6562C21.9733 34.5138 22.5428 34.3714 23.1597 34.1342V24.4052H21.3563ZM11.8172 21.4153V34.1342C12.3867 34.324 13.0037 34.5138 13.6206 34.6562V21.4153H11.8172ZM11.3426 11.4491C9.82395 12.9677 8.87478 15.0084 8.82732 17.239C8.82732 17.3339 8.82732 17.4763 8.82732 17.5712V27.5374H10.6307V17.5712C10.6307 15.6729 11.3901 13.9644 12.624 12.7304C13.8579 11.4965 15.5664 10.7372 17.4647 10.7372C19.3631 10.7372 21.0716 11.4965 22.3055 12.7304C23.5394 13.9644 24.2987 15.6729 24.2987 17.5712V17.9034H26.1022V17.5712C26.1022 17.4763 26.1022 17.3814 26.1022 17.3339C26.0547 15.0559 25.0581 12.9677 23.5869 11.4491C22.0207 9.88294 19.8377 8.93377 17.4647 8.93377C15.0918 8.93377 12.9087 9.88294 11.3426 11.4491ZM8.82732 28.9612V32.7579C9.39682 33.0901 10.0138 33.3748 10.6307 33.6596V28.9612H8.82732ZM24.3462 19.3271V33.6596C24.9632 33.3748 25.5801 33.0901 26.1496 32.7579V19.3271H24.3462ZM9.25445 9.31343C7.21374 11.3541 5.93236 14.1542 5.83744 17.239C5.83744 17.3339 5.83744 17.4763 5.83744 17.5712V20.5611H7.64086V17.5712C7.64086 14.8661 8.7324 12.3982 10.5358 10.5948C12.3392 8.79139 14.8071 7.69985 17.5122 7.69985C19.3156 7.69985 21.0241 8.17443 22.4953 9.02868V6.98798C20.9767 6.2761 19.3156 5.89643 17.5122 5.89643C14.285 5.89643 11.3901 7.17781 9.25445 9.31343ZM23.8716 10.0253C24.0615 10.2151 24.2513 10.405 24.4411 10.5948C26.2445 12.3982 27.3361 14.8661 27.3361 17.5712V24.073H29.1395V17.5712C29.1395 17.4763 29.1395 17.3339 29.1395 17.239C29.0446 14.1542 27.7632 11.3541 25.7225 9.31343C25.153 8.74393 24.536 8.22189 23.8716 7.79477V10.0253ZM5.83744 21.9848V30.6222C6.40694 31.1443 7.0239 31.6189 7.64086 32.046V22.0323H5.83744V21.9848ZM27.3361 25.4493V31.9985C27.953 31.5714 28.57 31.0968 29.1395 30.5748V25.4018H27.3361V25.4493ZM7.11882 7.17781C5.26794 9.02868 3.89165 11.4016 3.22724 14.0593H5.07811C5.69507 11.9236 6.83407 9.97785 8.35274 8.45918C9.34936 7.46256 10.4884 6.65577 11.7697 5.99135V3.9981C10.0138 4.75743 8.4002 5.80152 7.07136 7.13035L7.11882 7.17781ZM13.2409 5.42185C14.5698 4.94727 15.9935 4.70997 17.5122 4.70997C21.0716 4.70997 24.2987 6.13372 26.6242 8.45918C28.0005 9.83548 29.0446 11.4965 29.6615 13.3474H31.5599C30.848 10.9745 29.5666 8.88631 27.9056 7.17781C25.2479 4.52014 21.5936 2.90656 17.5597 2.90656C16.0884 2.90656 14.6647 3.14385 13.2884 3.52352V5.42185H13.2409ZM30.0412 14.7711C30.231 15.6729 30.326 16.622 30.326 17.5712V29.4832C30.9904 28.7714 31.6073 28.012 32.1294 27.2052V17.6186C32.1294 17.5237 32.1294 17.3814 32.1294 17.2864C32.1294 16.4322 32.0345 15.6254 31.8446 14.8186H29.9937L30.0412 14.7711ZM2.98994 15.483C2.89503 16.1 2.84757 16.7644 2.84757 17.4288V17.6661V27.1578C3.36961 27.9646 3.98657 28.7239 4.65099 29.4358V17.5237C4.65099 16.8119 4.69844 16.1 4.84082 15.4356H3.0374L2.98994 15.483ZM6.31203 6.51339C6.4544 6.37102 6.59678 6.22864 6.73915 6.08627C6.78661 6.03881 6.83407 5.99135 6.88153 5.94389C6.92899 5.89643 6.97644 5.84897 7.0239 5.80152C7.07136 5.75406 7.11882 5.7066 7.16628 5.65914C7.21374 5.61168 7.26119 5.56422 7.30865 5.56422C7.35611 5.51677 7.40357 5.46931 7.45103 5.46931C7.49849 5.42185 7.54594 5.37439 7.5934 5.37439C7.64086 5.32693 7.68832 5.27947 7.73578 5.27947C7.78324 5.23202 7.83069 5.18456 7.87815 5.18456C7.92561 5.1371 7.97307 5.08964 8.02053 5.08964C8.06799 5.04218 8.11545 4.99472 8.1629 4.99472C8.21036 4.94727 8.25782 4.89981 8.30528 4.89981C8.35274 4.85235 8.4002 4.85235 8.44765 4.80489C8.49511 4.75743 8.54257 4.75743 8.59003 4.70997C8.63749 4.66252 8.68495 4.66252 8.7324 4.61506C8.77986 4.5676 8.82732 4.5676 8.87478 4.52014C8.92224 4.47268 8.9697 4.47268 9.01715 4.42522C9.06461 4.37777 9.11207 4.37777 9.15953 4.33031C9.20699 4.28285 9.25445 4.28285 9.3019 4.23539C9.34936 4.18793 9.39682 4.18793 9.44428 4.14047C9.49174 4.09302 9.5392 4.09302 9.58665 4.04556C9.63411 3.9981 9.68157 3.9981 9.72903 3.95064C9.77649 3.90318 9.82395 3.90318 9.8714 3.85572C9.91886 3.80827 9.96632 3.80827 10.0138 3.76081C10.0612 3.71335 10.1087 3.71335 10.1562 3.66589C10.2036 3.61843 10.2511 3.61843 10.2985 3.57097C10.346 3.52352 10.3934 3.52352 10.4409 3.47606C10.4884 3.4286 10.5358 3.4286 10.5833 3.38114C10.6307 3.33368 10.6782 3.33368 10.7257 3.28622C10.7731 3.23877 10.8206 3.23877 10.9155 3.19131C10.9629 3.14385 11.0104 3.14385 11.1053 3.09639C11.1528 3.04893 11.2002 3.04893 11.2952 3.00147C11.3426 3.00147 11.3901 2.95402 11.485 2.95402C11.5324 2.95402 11.5799 2.90656 11.6748 2.90656C11.7223 2.90656 11.7697 2.8591 11.8647 2.8591C11.9121 2.8591 11.9596 2.81164 12.0545 2.81164C12.1019 2.81164 12.1494 2.76418 12.2443 2.76418C12.2918 2.76418 12.3392 2.71672 12.4342 2.71672C12.4816 2.71672 12.5291 2.66927 12.624 2.66927C12.6714 2.66927 12.7189 2.62181 12.8138 2.62181C12.8613 2.62181 12.9087 2.57435 13.0037 2.57435C13.0511 2.57435 13.146 2.52689 13.1935 2.52689C13.2409 2.52689 13.3359 2.47943 13.3833 2.47943C13.4308 2.47943 13.5257 2.43197 13.5732 2.43197C13.6206 2.43197 13.7155 2.38451 13.763 2.38451C13.8104 2.38451 13.9054 2.33706 13.9528 2.33706C14.0003 2.33706 14.0952 2.2896 14.1427 2.2896C14.1901 2.2896 14.285 2.24214 14.3325 2.24214C14.3799 2.24214 14.4749 2.19468 14.5223 2.19468C14.5698 2.19468 14.6647 2.19468 14.7122 2.14722C14.7596 2.14722 14.8545 2.14722 14.902 2.09976C14.9494 2.09976 15.0444 2.09976 15.0918 2.05231C15.1393 2.05231 15.2342 2.05231 15.2817 2.00485C15.3291 2.00485 15.424 2.00485 15.4715 1.95739C15.5189 1.95739 15.6139 1.95739 15.6613 1.90993C15.7088 1.90993 15.8037 1.90993 15.8512 1.90993C15.8986 1.90993 15.9935 1.90993 16.041 1.90993C16.0884 1.90993 16.1834 1.90993 16.2308 1.90993C16.2783 1.90993 16.3732 1.90993 16.4207 1.90993C16.4681 1.90993 16.563 1.90993 16.6105 1.90993C16.6579 1.90993 16.7529 1.90993 16.8003 1.90993C16.8478 1.90993 16.9427 1.90993 16.9902 1.90993C17.0376 1.90993 17.1325 1.90993 17.18 1.90993C17.2274 1.90993 17.3224 1.90993 17.3698 1.90993C17.4173 1.90993 17.5122 1.90993 17.5597 1.90993C17.9868 1.90993 18.3664 1.90993 18.7936 1.95739V0.153972C18.3664 0.106514 17.9868 0.106514 17.5597 0.106514C12.9087 0.106514 8.7324 1.90993 5.60015 4.85235C5.03065 5.37439 4.50861 5.99135 3.98657 6.56085H6.40694L6.31203 6.51339ZM20.1699 2.05231C23.4445 2.62181 26.3869 4.18793 28.6175 6.41848C29.8988 7.69985 30.9429 9.17106 31.7022 10.7846H33.648C31.3226 5.23202 26.2445 1.1506 20.1224 0.248889V2.05231H20.1699Z" fill="#FFD648"/>
<path d="M125.622 5.65914C126.524 6.18119 127.378 6.89306 127.9 7.69985C128.422 6.89306 129.229 6.22864 130.131 5.7066C131.127 5.1371 132.314 4.75743 133.358 4.75743C135.256 4.75743 136.917 5.46931 138.151 6.65577C139.338 7.84223 140.097 9.50327 140.097 11.3541V20.6085H137.866V20.3712C137.866 19.517 137.866 18.4254 137.866 17.3814C137.866 16.4322 137.866 15.4356 137.866 14.344C137.866 13.7745 137.866 13.2525 137.866 12.8728C137.866 12.3982 137.866 11.8762 137.819 11.4016C137.819 10.1677 137.344 9.07614 136.538 8.26935C135.731 7.46256 134.639 6.98798 133.405 6.98798C132.219 6.98798 131.08 7.46256 130.32 8.26935C129.514 9.07614 129.039 10.1677 128.992 11.4016V20.656H126.761V11.4016C126.761 10.1677 126.287 9.07614 125.48 8.26935C124.673 7.46256 123.581 6.98798 122.347 6.98798C121.161 6.98798 120.022 7.46256 119.263 8.26935C118.456 9.07614 117.981 10.1677 117.934 11.4016V20.656H115.703V11.4016C115.703 9.55073 116.463 7.88969 117.649 6.70323C118.836 5.51677 120.497 4.75743 122.347 4.75743C123.392 4.75743 124.578 5.1371 125.622 5.7066V5.65914ZM43.709 14.0118V4.70998H45.9395V10.6897C45.9395 11.3067 45.9395 11.9236 45.9395 12.3508C45.9395 12.9203 45.9395 13.4423 45.987 14.0118C45.987 15.2457 46.4616 16.3373 47.2684 17.1441C48.0752 17.9509 49.1667 18.4254 50.3532 18.4254C51.5871 18.4254 52.6786 17.9509 53.4854 17.1441C54.2922 16.3373 54.7668 15.2457 54.7668 14.0118V4.70998H56.9973L57.0448 14.0118C57.0448 15.8627 56.2854 17.5237 55.099 18.7102C53.9125 19.8966 52.204 20.656 50.4006 20.656C48.5972 20.656 46.9362 19.8966 45.7022 18.7102C44.5158 17.5237 43.7564 15.8627 43.7564 14.0118H43.709ZM73.2281 11.3067V20.656H70.9975V11.4016C70.9975 10.1677 70.5229 9.07614 69.7162 8.26935C68.9094 7.46256 67.8178 6.98798 66.5839 6.98798C65.3025 6.98798 64.1635 7.4151 63.3567 8.22189C62.5974 8.98123 62.1228 10.0253 62.0754 11.4016L62.1228 20.7034H59.8923V11.4016C59.8923 9.31344 60.6042 7.74731 61.6482 6.65577C62.8822 5.37439 64.6856 4.75743 66.3941 4.75743H66.4415C68.2449 4.75743 70.0009 5.37439 71.2823 6.65577C72.3738 7.74731 73.0857 9.31344 73.0857 11.4016L73.2281 11.3067ZM76.1705 20.4187V4.70998H78.401V20.656H76.1705V20.4187ZM83.6689 7.03544C85.0927 5.61168 87.0859 4.70998 89.269 4.70998C90.8351 4.70998 92.3538 5.18456 93.5877 5.99135C94.8691 6.79814 95.9132 7.9846 96.5301 9.40835L96.625 9.64564L94.5843 10.4999L94.4894 10.3101C94.0148 9.31344 93.303 8.50664 92.3538 7.88969C91.4521 7.32019 90.408 6.98798 89.269 6.98798C87.7029 6.98798 86.2791 7.60494 85.235 8.64902C84.191 9.6931 83.574 11.1169 83.574 12.7304C83.574 14.344 84.191 15.7678 85.235 16.8119C86.2791 17.8559 87.7029 18.4729 89.269 18.4729C90.408 18.4729 91.4521 18.1407 92.3538 17.5712C93.2555 17.0017 94.0148 16.1474 94.4894 15.1508L94.5843 14.961L96.625 15.8627L96.5301 16.1C95.8657 17.4763 94.8691 18.6627 93.5877 19.4695C92.3538 20.2763 90.8826 20.7034 89.3165 20.7034C87.1334 20.7034 85.1401 19.8017 83.7164 18.378C82.2926 16.9542 81.3909 14.961 81.3909 12.7304C81.3909 10.5474 82.2926 8.5541 83.7164 7.08289L83.6689 7.03544ZM99.4725 14.0118V4.70998H101.703V10.6897C101.703 11.3067 101.703 11.9236 101.703 12.3508C101.703 12.9203 101.703 13.4423 101.751 14.0118C101.751 15.2457 102.225 16.3373 103.032 17.1441C103.839 17.9509 104.93 18.4254 106.117 18.4254C107.351 18.4254 108.442 17.9509 109.249 17.1441C110.056 16.3373 110.53 15.2457 110.53 14.0118V4.70998H112.761L112.808 14.0118C112.808 15.8627 112.049 17.5237 110.863 18.7102C109.676 19.8966 107.968 20.656 106.164 20.656C104.361 20.656 102.7 19.8966 101.466 18.7102C100.279 17.5237 99.52 15.8627 99.52 14.0118H99.4725Z" fill="#040404"/>
<path d="M64.2585 30.5748H63.4991V29.4832C63.1669 29.9104 62.8347 30.2426 62.4076 30.4324C62.0754 30.6222 61.6482 30.6697 61.2211 30.6697C60.3194 30.6697 59.6075 30.3849 58.9906 29.8154C58.3736 29.2459 58.0889 28.4866 58.0889 27.5849C58.0889 26.8256 58.3262 26.1137 58.8482 25.5442C59.4177 24.8798 60.2245 24.5476 61.1737 24.5476C61.7432 24.5476 62.1703 24.6425 62.55 24.8323C62.9296 25.0222 63.2144 25.3069 63.4517 25.6866V24.6899H64.211V30.5273L64.2585 30.5748ZM63.4991 27.6798C63.4991 27.0154 63.2618 26.4459 62.8347 26.0188C62.4076 25.5442 61.8381 25.3069 61.1737 25.3069C60.5567 25.3069 59.9872 25.5442 59.5601 25.9713C59.0855 26.4459 58.8957 26.9679 58.8957 27.6798C58.8957 28.3442 59.133 28.8663 59.5601 29.3409C60.0347 29.768 60.5567 30.0053 61.2211 30.0053C61.8381 30.0053 62.4076 29.768 62.8347 29.3409C63.2618 28.9137 63.4991 28.3442 63.4991 27.7273V27.6798ZM74.1298 26.4934H73.2281C73.0383 26.1137 72.7535 25.8289 72.4213 25.5917C72.0891 25.4018 71.7094 25.2594 71.2823 25.2594C70.6179 25.2594 70.0484 25.4967 69.6212 25.9239C69.1941 26.351 68.9568 26.9205 68.9568 27.5849C68.9568 28.2493 69.1941 28.8188 69.6212 29.2459C70.0958 29.7205 70.6179 29.9104 71.2823 29.9104C71.7094 29.9104 72.0416 29.8154 72.4213 29.6256C72.7535 29.4358 73.0382 29.151 73.2755 28.7714H74.1298C73.8925 29.2934 73.5603 29.7205 73.1806 30.0053C72.6586 30.3849 72.0416 30.6222 71.2823 30.6222C70.3331 30.6222 69.5738 30.29 69.0043 29.6731C68.4822 29.1036 68.1975 28.3917 68.1975 27.5849C68.1975 26.8256 68.4822 26.1137 69.0043 25.5442C69.6212 24.8798 70.3806 24.5476 71.3297 24.5476C71.9942 24.5476 72.5637 24.7374 73.0857 25.0696C73.6077 25.4018 73.94 25.8764 74.1772 26.4459L74.1298 26.4934ZM84.0011 30.5748H83.2418V29.4832C82.9096 29.9104 82.5774 30.2426 82.1503 30.4324C81.818 30.6222 81.3909 30.6697 80.9638 30.6697C80.0621 30.6697 79.3502 30.3849 78.7333 29.8154C78.1163 29.2459 77.8315 28.4866 77.8315 27.5849C77.8315 26.8256 78.0688 26.1137 78.5909 25.5442C79.1604 24.8798 79.9672 24.5476 80.9163 24.5476C81.4858 24.5476 81.913 24.6425 82.2926 24.8323C82.6723 25.0222 82.957 25.3069 83.1943 25.6866V24.6899H83.9537V30.5273L84.0011 30.5748ZM83.2418 27.6798C83.2418 27.0154 83.0045 26.4459 82.5774 26.0188C82.1503 25.5442 81.5807 25.3069 80.9163 25.3069C80.2994 25.3069 79.7299 25.5442 79.3027 25.9713C78.8282 26.4459 78.6383 26.9679 78.6383 27.6798C78.6383 28.3442 78.8756 28.8663 79.3027 29.3409C79.7773 29.768 80.2994 30.0053 80.9638 30.0053C81.5808 30.0053 82.1503 29.768 82.5774 29.3409C83.0045 28.9137 83.2418 28.3442 83.2418 27.7273V27.6798ZM94.0623 30.5748H93.303V29.5307C93.0182 29.9104 92.686 30.1951 92.3063 30.4324C91.9267 30.6222 91.4521 30.7646 91.025 30.7646C90.1707 30.7646 89.4114 30.4799 88.7944 29.8629C88.1775 29.2934 87.8927 28.5341 87.8927 27.6324C87.8927 26.873 88.13 26.2086 88.6521 25.6391C89.2215 24.9747 90.0283 24.6425 90.9775 24.6425C91.4995 24.6425 91.9741 24.7374 92.3063 24.9272C92.686 25.1171 92.9708 25.4018 93.208 25.7815V22.6967H94.0148V30.5748H94.0623ZM93.303 27.6798C93.303 27.0154 93.0657 26.4459 92.6385 25.9713C92.2114 25.4967 91.6419 25.3069 90.9775 25.3069C90.3131 25.3069 89.791 25.5442 89.3639 25.9713C88.9368 26.4459 88.6995 26.9679 88.6995 27.6798C88.6995 28.3442 88.9368 28.9137 89.3639 29.3409C89.8385 29.768 90.3605 30.0053 91.025 30.0053C91.6419 30.0053 92.2114 29.768 92.6385 29.3409C93.0657 28.9137 93.303 28.3442 93.303 27.6798ZM103.981 27.9171H98.7607C98.7607 28.4866 98.998 28.9612 99.4251 29.3883C99.8522 29.768 100.374 30.0053 100.991 30.0053C101.418 30.0053 101.845 29.8629 102.225 29.6256C102.605 29.3883 102.842 29.0561 103.032 28.6764H103.839C103.601 29.2934 103.222 29.8154 102.747 30.1477C102.225 30.5273 101.656 30.6697 100.991 30.6697C100.137 30.6697 99.4251 30.3849 98.8081 29.8154C98.2386 29.2459 97.9539 28.5341 97.9539 27.6324C97.9539 26.8256 98.1912 26.1612 98.7132 25.5442C99.2827 24.8798 100.042 24.5476 100.991 24.5476C101.988 24.5476 102.795 24.9272 103.317 25.6391C103.744 26.2561 103.981 27.0154 103.981 27.8697V27.9171ZM103.127 27.2052C103.032 26.6357 102.747 26.1612 102.368 25.8289C101.988 25.4967 101.513 25.3069 100.991 25.3069C100.422 25.3069 99.9471 25.4967 99.52 25.8289C99.0929 26.1612 98.8556 26.6357 98.7607 27.2052H103.127ZM116.558 30.5273H115.751V27.2052C115.751 26.4934 115.561 25.9713 115.181 25.6391C114.897 25.4018 114.564 25.2594 114.137 25.2594C113.9 25.2594 113.663 25.3069 113.473 25.4018C113.283 25.4967 113.093 25.6391 112.951 25.7815C112.808 25.9713 112.666 26.1612 112.666 26.3984C112.619 26.6357 112.619 26.873 112.619 27.1578V30.4799H111.812V27.1578C111.812 26.5883 111.669 26.1137 111.432 25.7815C111.147 25.4018 110.768 25.2594 110.246 25.2594C109.724 25.2594 109.344 25.4493 109.059 25.7815C108.774 26.1137 108.679 26.5883 108.679 27.1578V30.4799H107.873V24.6425H108.632V25.4018C108.822 25.1171 109.059 24.8798 109.344 24.7374C109.629 24.595 109.913 24.5001 110.293 24.5001C110.815 24.5001 111.29 24.6425 111.669 24.9272C111.954 25.1171 112.144 25.3544 112.286 25.6391C112.476 25.3069 112.761 25.0222 113.141 24.7849C113.473 24.595 113.852 24.5001 114.28 24.5001C114.849 24.5001 115.371 24.6899 115.798 25.0222C116.368 25.4967 116.652 26.2086 116.652 27.1578V30.4799L116.558 30.5273ZM125.622 24.6899L122.253 32.568H121.398L122.347 30.2426L120.069 24.6899H121.019L122.87 29.2459L124.768 24.6899H125.622Z" fill="#040404"/>
</g>
<defs>
<clipPath id="clip0_1_118">
<rect width="140.097" height="35" fill="white"/>
</clipPath>
</defs>
</svg>
