<svg width="141" height="35" viewBox="0 0 141 35" fill="none" xmlns="http://www.w3.org/2000/svg">
<g clip-path="url(#clip0_173_288)">
<path fill-rule="evenodd" clip-rule="evenodd" d="M1.80324 16.527C1.99307 13.2999 3.17953 10.31 5.07787 7.88962H2.89478C2.89478 7.93707 2.84732 7.98453 2.84732 7.98453C2.84732 8.03199 2.79987 8.07945 2.79987 8.07945C2.79987 8.12691 2.75241 8.17437 2.75241 8.17437C2.75241 8.22182 2.70495 8.26928 2.70495 8.26928C2.70495 8.31674 2.65749 8.3642 2.65749 8.3642C2.65749 8.41166 2.61003 8.45912 2.61003 8.45912C2.61003 8.50657 2.56257 8.55403 2.56257 8.55403C2.56257 8.60149 2.51512 8.64895 2.51512 8.64895C2.51512 8.69641 2.46766 8.74387 2.46766 8.74387C2.46766 8.79132 2.4202 8.83878 2.4202 8.83878C2.4202 8.88624 2.37274 8.9337 2.37274 8.9337C2.37274 8.98116 2.32528 9.02862 2.32528 9.02862C2.32528 9.07607 2.27782 9.12353 2.27782 9.12353C2.27782 9.17099 2.23037 9.21845 2.23037 9.21845C2.23037 9.26591 2.18291 9.31337 2.18291 9.31337C2.18291 9.36082 2.13545 9.40828 2.13545 9.40828C2.13545 9.45574 2.08799 9.5032 2.08799 9.5032C2.08799 9.55066 2.04053 9.59812 2.04053 9.59812C2.04053 9.64557 1.99307 9.69303 1.99307 9.69303C1.99307 9.74049 1.94562 9.78795 1.94562 9.78795C1.94562 9.83541 1.89816 9.88287 1.89816 9.88287C1.89816 9.93032 1.8507 9.97778 1.8507 9.97778C1.8507 10.0252 1.80324 10.0727 1.80324 10.0727C1.80324 10.1202 1.75578 10.1676 1.75578 10.2151C1.75578 10.2625 1.70832 10.31 1.70832 10.3574C1.70832 10.4049 1.66087 10.4524 1.66087 10.4998C1.66087 10.5473 1.61341 10.5947 1.61341 10.6422C1.61341 10.6897 1.56595 10.7371 1.56595 10.7846C1.56595 10.832 1.51849 10.8795 1.51849 10.9269C1.51849 10.9744 1.47103 11.0219 1.47103 11.0693C1.47103 11.1168 1.42357 11.1642 1.42357 11.2117C1.42357 11.2592 1.37611 11.3066 1.37611 11.3541C1.37611 11.4015 1.32866 11.449 1.32866 11.4965C1.32866 11.5439 1.2812 11.5914 1.2812 11.6388C1.2812 11.6863 1.23374 11.7337 1.23374 11.7812C1.23374 11.8287 1.18628 11.8761 1.18628 11.9236C1.18628 11.971 1.13882 12.0185 1.13882 12.066C1.13882 12.1134 1.09136 12.1609 1.09136 12.2083C1.09136 12.2558 1.04391 12.3032 1.04391 12.3507C1.04391 12.3982 0.996448 12.4456 0.996448 12.4931C0.996448 12.5405 0.94899 12.588 0.94899 12.6355C0.94899 12.6829 0.901531 12.7304 0.901531 12.7778C0.901531 12.8253 0.901532 12.8727 0.854073 12.9202C0.854073 12.9677 0.854073 13.0151 0.806615 13.0626C0.806615 13.11 0.806615 13.1575 0.759156 13.205C0.759156 13.2524 0.759156 13.2999 0.711698 13.3473C0.711698 13.3948 0.711698 13.4422 0.66424 13.4897C0.66424 13.5372 0.66424 13.5846 0.616781 13.6321C0.616781 13.6795 0.616781 13.727 0.569323 13.7745C0.569323 13.8219 0.569323 13.8694 0.521865 13.9168C0.521865 13.9643 0.521865 14.0117 0.474406 14.0592C0.474406 14.1067 0.474406 14.1541 0.426948 14.2016C0.426948 14.249 0.426948 14.2965 0.37949 14.344C0.37949 14.3914 0.37949 14.4389 0.332031 14.4863C0.332031 14.5338 0.332031 14.5812 0.332031 14.6287C0.332031 14.6762 0.332031 14.7236 0.332031 14.7711C0.332031 14.8185 0.332031 14.866 0.332031 14.9135C0.332031 14.9609 0.332031 15.0084 0.332031 15.0558C0.332031 15.1033 0.332031 15.1507 0.332031 15.1982C0.332031 15.2457 0.332031 15.2931 0.332031 15.3406C0.332031 15.388 0.332031 15.4355 0.332031 15.483C0.332031 15.5304 0.332031 15.5779 0.332031 15.6253C0.332031 15.6728 0.332031 15.7202 0.332031 15.7677C0.332031 15.8152 0.332031 15.8626 0.332031 15.9101C0.332031 16.0525 0.332031 16.8118 0.332031 17.761C0.426948 20.2762 1.04391 22.6017 2.08799 24.7373V24.6899V24.6424V24.595V24.5475V24.5V24.4526V24.4051V24.3577V24.2627V24.1678V24.0729V23.978V23.8831V23.7882V23.6932V23.5983V23.5034V23.4085V23.3136V23.1712V23.0288V22.8865V22.7441V22.6017V22.4593V22.317V22.1746V22.0322V21.8898V21.7475V21.6051V21.4627V21.3203V21.178V21.0356V20.8932V20.7508V20.6085V20.4661V20.3237V20.1813V20.039V19.8966V19.7542V19.6118V19.4695V19.3271V19.1847V19.0423V18.9V18.7576V18.6627V18.5677V18.4728V18.3779V18.283V18.1881V18.0932V17.9982V17.9033V17.8084V17.7135V17.666V17.6186V17.5711V17.5237V17.4762V17.4287V17.3813V17.3338V17.2864V17.2389V17.1915V17.144V17.0965V17.0491V17.0016V16.9542V16.9067V16.8592V16.8118V16.7643V16.7169V16.6694V16.622V16.5745V16.527V16.4796V16.4321V16.3847V16.3372V16.2897V16.2423V16.1948V16.1474V16.0999V16.0525V16.005V15.9575V15.9101V15.8626V15.8152V15.7677V15.7202V15.6728L1.80324 16.527ZM32.2715 12.2083C32.2715 12.2558 32.2715 12.2558 32.319 12.3032C32.319 12.3507 32.319 12.3507 32.3664 12.3982C32.3664 12.4456 32.3664 12.4456 32.4139 12.4931C32.4139 12.5405 32.4139 12.5405 32.4613 12.588C32.4613 12.6355 32.4613 12.6355 32.5088 12.6829C32.5088 12.7304 32.5088 12.7304 32.5563 12.7778C32.5563 12.8253 32.5563 12.8253 32.6037 12.8727C32.6037 12.9202 32.6037 12.9202 32.6512 12.9677C32.6512 13.0151 32.6512 13.0151 32.6512 13.0626C32.6512 13.11 32.6512 13.11 32.6512 13.1575C32.6512 13.205 32.6512 13.205 32.6512 13.2524C32.6512 13.2999 32.6512 13.2999 32.6512 13.3473C32.6512 13.3948 32.6512 13.3948 32.6512 13.4422C32.6512 13.4897 32.6512 13.4897 32.6512 13.5372C32.6512 13.5846 32.6512 13.5846 32.6512 13.6321C32.6512 13.6795 32.6512 13.6795 32.6512 13.727C32.6512 13.7745 32.6512 13.7745 32.6512 13.8219C32.6512 13.8694 32.6512 13.8694 32.6512 13.9168C32.6512 13.9643 32.6512 13.9643 32.6512 14.0117C32.6512 14.0592 32.6512 14.0592 32.6512 14.1067C32.6512 14.1541 32.6986 14.2016 32.6986 14.249C32.6986 14.2965 32.6986 14.2965 32.6986 14.344C32.6986 14.3914 32.6986 14.3914 32.6986 14.4389C32.6986 14.4863 32.6986 14.4863 32.6986 14.5338C32.6986 14.5812 32.6986 14.5812 32.6986 14.6287C32.6986 14.6762 32.6986 14.6762 32.6986 14.7236C32.6986 14.7711 32.6986 14.7711 32.6986 14.8185C32.6986 14.866 32.6986 14.866 32.6986 14.9135C32.6986 14.9609 32.6986 14.9609 32.6986 15.0084C32.6986 15.0558 32.6986 15.0558 32.6986 15.1033C32.6986 15.1507 32.6986 15.1507 32.6986 15.1982C32.6986 15.2457 32.6986 15.2457 32.6986 15.2931C32.6986 15.3406 32.6986 15.3406 32.6986 15.388C32.6986 15.4355 32.6986 15.4355 32.6986 15.483C32.6986 15.5304 32.6986 15.5304 32.6986 15.5779C32.6986 15.6253 32.6986 15.6253 32.6986 15.6728C32.6986 15.7202 32.6986 15.7202 32.6986 15.7677C32.6986 15.8152 32.6986 15.8152 32.6986 15.8626C32.6986 15.9101 32.6986 15.9101 32.6986 15.9575C32.6986 16.005 32.6986 16.005 32.6986 16.0525C32.6986 16.0999 32.6986 16.0999 32.6986 16.1474C32.6986 16.1948 32.6986 16.1948 32.6986 16.2423C32.6986 16.2897 32.6986 16.2897 32.6986 16.3372C32.6986 16.3847 32.6986 16.3847 32.6986 16.4321C32.6986 16.4796 32.6986 16.4796 32.6986 16.527C32.6986 16.5745 32.6986 16.5745 32.6986 16.622C32.6986 16.6694 32.6986 16.6694 32.6986 16.7169C32.6986 16.7643 32.6986 16.7643 32.6986 16.8118C32.6986 16.8592 32.6986 16.8592 32.6986 16.9067C32.6986 16.9542 32.6986 16.9542 32.6986 17.0016C32.6986 17.0491 32.6986 17.0491 32.6986 17.0965C32.6986 17.144 32.6986 17.144 32.6986 17.1915C32.6986 17.2389 32.6986 17.2389 32.6986 17.2864C32.6986 17.3338 32.6986 17.3338 32.6986 17.3813C32.6986 17.4287 32.6986 17.4287 32.6986 17.4762C32.6986 17.5237 32.6986 17.5237 32.6986 17.5711C32.6986 17.6186 32.6986 17.6186 32.6986 17.666C32.6986 17.7135 32.6986 17.7135 32.6986 17.761C32.6986 17.8084 32.6986 17.8084 32.6986 17.8559C32.6986 17.9033 32.6986 17.9033 32.6986 17.9508C32.6986 17.9982 32.6986 17.9982 32.6986 18.0457C32.6986 18.0932 32.6986 18.0932 32.6986 18.1406C32.6986 18.1881 32.6986 18.1881 32.6986 18.2355V25.639C32.6986 25.5916 32.7461 25.5441 32.7461 25.5441C32.7461 25.4967 32.7935 25.4492 32.7935 25.4492C32.7935 25.4017 32.841 25.3543 32.841 25.3543C32.841 25.3068 32.8885 25.2594 32.8885 25.2594C32.8885 25.2119 32.9359 25.1645 32.9359 25.1645C32.9359 25.117 32.9834 25.0695 32.9834 25.0695C32.9834 25.0221 33.0308 24.9746 33.0308 24.9746C33.0308 24.9272 33.0783 24.8797 33.0783 24.8797C33.0783 24.8322 33.1258 24.7848 33.1258 24.7848C33.1258 24.7373 33.1732 24.6899 33.1732 24.6899C33.1732 24.6424 33.2207 24.595 33.2207 24.595C33.2207 24.5475 33.2681 24.5 33.2681 24.5C33.2681 24.4526 33.3156 24.4051 33.3156 24.4051C33.3156 24.3577 33.363 24.3102 33.363 24.3102C33.363 24.2627 33.4105 24.2153 33.4105 24.2153C33.4105 24.1678 33.458 24.1204 33.458 24.1204C33.458 24.0729 33.5054 24.0255 33.5054 24.0255C33.5054 23.978 33.5529 23.9305 33.5529 23.9305C33.5529 23.8831 33.6003 23.8356 33.6003 23.8356C33.6003 23.7882 33.6478 23.7407 33.6478 23.7407C33.6478 23.6932 33.6953 23.6458 33.6953 23.6458C33.6953 23.5983 33.7427 23.5509 33.7427 23.5509C33.7427 23.5034 33.7902 23.456 33.7902 23.456C33.7902 23.4085 33.7902 23.361 33.8376 23.361C33.8376 23.3136 33.8376 23.2661 33.8851 23.2661C33.8851 23.2187 33.8851 23.1712 33.9325 23.1712C33.9325 23.1237 33.9325 23.0763 33.98 23.0763C33.98 23.0288 33.98 22.9814 34.0275 22.9814C34.0275 22.9339 34.0275 22.8865 34.0749 22.8865C34.0749 22.839 34.0749 22.7915 34.1224 22.7915C34.1224 22.7441 34.1224 22.6966 34.1698 22.6966C34.1698 22.6492 34.1698 22.6017 34.2173 22.6017C34.2173 22.5542 34.2173 22.5068 34.2648 22.4593C34.2648 22.4119 34.2648 22.3644 34.3122 22.317C34.3122 22.2695 34.3122 22.222 34.3597 22.1746C34.3597 22.1271 34.3597 22.0797 34.4071 22.0322C34.4071 21.9847 34.4071 21.9373 34.4546 21.8898C34.4546 21.8424 34.4546 21.7949 34.502 21.7475C34.502 21.7 34.502 21.6525 34.502 21.6051C34.502 21.5576 34.502 21.5102 34.502 21.4627C34.502 21.4152 34.502 21.3678 34.502 21.3203C34.502 21.2729 34.502 21.2254 34.502 21.178C34.502 21.1305 34.502 21.083 34.502 21.0356C34.502 20.9881 34.502 20.9407 34.502 20.8932C34.502 20.8457 34.502 20.7983 34.502 20.7508C34.502 20.7034 34.502 20.6559 34.502 20.6085C34.502 20.561 34.502 20.5135 34.502 20.4661C34.502 20.4186 34.502 20.3712 34.502 20.3237C34.502 20.2762 34.502 20.2288 34.502 20.1813C34.502 20.1339 34.502 20.0864 34.502 20.039C34.502 19.9915 34.502 19.944 34.502 19.8966C34.502 19.8491 34.502 19.8017 34.502 19.7542C34.502 19.7067 34.502 19.6593 34.502 19.6118C34.502 19.5644 34.502 19.5169 34.502 19.4695C34.502 19.422 34.502 19.3745 34.502 19.3271C34.502 19.2796 34.502 19.2322 34.502 19.1847C34.502 19.1372 34.502 19.0898 34.502 19.0423C34.502 18.9949 34.502 18.9474 34.502 18.9C34.502 18.8525 34.502 18.805 34.502 18.7576C34.502 18.7101 34.502 18.6627 34.502 18.6152C34.502 18.5677 34.502 18.5203 34.502 18.4728C34.502 18.4254 34.502 18.3779 34.502 18.3305C34.502 18.283 34.502 18.2355 34.502 18.1881C34.502 18.1406 34.502 18.0932 34.502 18.0457V17.7135C34.502 15.9101 34.2173 14.2016 33.6953 12.5405H31.7969L32.2715 12.2083ZM17.4645 15.1507C16.7052 15.1507 15.9933 15.483 15.4712 16.005C15.0441 16.4796 14.7119 17.0965 14.6645 17.8084C14.6645 17.9033 14.6645 17.9508 14.6645 18.0457V24.9272H16.4679V18.0457C16.4679 17.7135 16.5628 17.4762 16.7526 17.2389C16.9425 17.0491 17.1797 16.9542 17.417 16.9542C17.7018 16.9542 17.9391 17.0491 18.0815 17.2389C18.2713 17.4287 18.3662 17.7135 18.3662 18.0457V29.4357H20.1696V18.0457C20.1696 17.9508 20.1696 17.9033 20.1696 17.8084C20.1222 17.0965 19.8374 16.4796 19.3628 16.005C18.8408 15.483 18.1764 15.1507 17.3696 15.1507H17.4645ZM18.4611 30.8595V35.0833C19.0781 35.0358 19.6476 34.9883 20.2645 34.8934V30.9069H18.4611V30.8595ZM14.7119 26.3509V34.846C15.2814 34.9409 15.8984 34.9883 16.5153 35.0358V26.3509H14.7119ZM13.478 13.5372C12.5288 14.4863 11.8644 15.8152 11.817 17.2864C11.817 17.3813 11.817 17.4762 11.817 17.5237V19.944H13.6204V17.5237C13.6204 16.4796 14.0475 15.483 14.7594 14.8185C15.234 14.344 15.8984 13.9643 16.6102 13.7745V11.9236C15.4238 12.1134 14.3322 12.6829 13.5255 13.4897L13.478 13.5372ZM17.9865 13.727C18.8408 13.8219 19.6476 14.249 20.2171 14.8185C20.929 15.5304 21.3561 16.4796 21.3561 17.5711V22.9814H23.1595V17.5711C23.1595 17.4762 23.1595 17.3338 23.1595 17.2389C23.0646 15.8152 22.4476 14.5338 21.4985 13.5372C20.5967 12.6355 19.3628 12.0185 17.9865 11.8761V13.6795V13.727ZM21.3561 24.4051V34.6561C21.973 34.5138 22.5425 34.3714 23.1595 34.1341V24.4051H21.3561ZM11.817 21.4152V34.1341C12.3865 34.3239 13.0034 34.5138 13.6204 34.6561V21.4152H11.817ZM11.3424 11.449C9.8237 12.9677 8.87453 15.0084 8.82708 17.2389C8.82708 17.3338 8.82708 17.4762 8.82708 17.5711V27.5374H10.6305V17.5711C10.6305 15.6728 11.3898 13.9643 12.6237 12.7304C13.8577 11.4965 15.5662 10.7371 17.4645 10.7371C19.3628 10.7371 21.0713 11.4965 22.3052 12.7304C23.5392 13.9643 24.2985 15.6728 24.2985 17.5711V17.9033H26.1019V17.5711C26.1019 17.4762 26.1019 17.3813 26.1019 17.3338C26.0545 15.0558 25.0578 12.9677 23.5866 11.449C22.0205 9.88287 19.8374 8.9337 17.4645 8.9337C15.0916 8.9337 12.9085 9.88287 11.3424 11.449ZM8.82708 28.9611V32.7578C9.39658 33.09 10.0135 33.3748 10.6305 33.6595V28.9611H8.82708ZM24.346 19.3271V33.6595C24.9629 33.3748 25.5799 33.09 26.1494 32.7578V19.3271H24.346ZM9.2542 9.31337C7.21349 11.3541 5.93212 14.1541 5.8372 17.2389C5.8372 17.3338 5.8372 17.4762 5.8372 17.5711V20.561H7.64062V17.5711C7.64062 14.866 8.73216 12.3982 10.5356 10.5947C12.339 8.79132 14.8068 7.69978 17.512 7.69978C19.3154 7.69978 21.0239 8.17437 22.4951 9.02862V6.98791C20.9764 6.27603 19.3154 5.89636 17.512 5.89636C14.2848 5.89636 11.3898 7.17774 9.2542 9.31337ZM23.8714 10.0252C24.0612 10.2151 24.251 10.4049 24.4409 10.5947C26.2443 12.3982 27.3358 14.866 27.3358 17.5711V24.0729H29.1392V17.5711C29.1392 17.4762 29.1392 17.3338 29.1392 17.2389C29.0443 14.1541 27.763 11.3541 25.7222 9.31337C25.1528 8.74387 24.5358 8.22182 23.8714 7.7947V10.0252ZM5.8372 21.9847V30.6222C6.4067 31.1442 7.02366 31.6188 7.64062 32.0459V22.0322H5.8372V21.9847ZM27.3358 25.4492V31.9985C27.9528 31.5713 28.5697 31.0968 29.1392 30.5747V25.4017H27.3358V25.4492ZM7.11858 7.17774C5.2677 9.02862 3.89141 11.4015 3.22699 14.0592H5.07787C5.69483 11.9236 6.83383 9.97778 8.35249 8.45912C9.34912 7.46249 10.4881 6.6557 11.7695 5.99128V3.99803C10.0135 4.75736 8.39995 5.80145 7.07112 7.13028L7.11858 7.17774ZM13.2407 5.42178C14.5695 4.9472 15.9933 4.70991 17.512 4.70991C21.0713 4.70991 24.2985 6.13366 26.624 8.45912C28.0003 9.83541 29.0443 11.4964 29.6613 13.3473H31.5596C30.8478 10.9744 29.5664 8.88624 27.9053 7.17774C25.2477 4.52007 21.5934 2.90649 17.5594 2.90649C16.0882 2.90649 14.6645 3.14378 13.2882 3.52345V5.42178H13.2407ZM30.041 14.7711C30.2308 15.6728 30.3257 16.622 30.3257 17.5711V29.4832C30.9901 28.7713 31.6071 28.012 32.1291 27.2052V17.6186C32.1291 17.5237 32.1291 17.3813 32.1291 17.2864C32.1291 16.4321 32.0342 15.6253 31.8444 14.8185H29.9935L30.041 14.7711ZM2.9897 15.483C2.89478 16.0999 2.84732 16.7643 2.84732 17.4287V17.666V27.1577C3.36937 27.9645 3.98632 28.7238 4.65074 29.4357V17.5237C4.65074 16.8118 4.6982 16.0999 4.84057 15.4355H3.03716L2.9897 15.483ZM6.31178 6.51332C6.45416 6.37095 6.59653 6.22857 6.73891 6.0862C6.78637 6.03874 6.83383 5.99128 6.88128 5.94382C6.92874 5.89636 6.9762 5.84891 7.02366 5.80145C7.07112 5.75399 7.11858 5.70653 7.16603 5.65907C7.21349 5.61161 7.26095 5.56416 7.30841 5.56416C7.35587 5.5167 7.40333 5.46924 7.45078 5.46924C7.49824 5.42178 7.5457 5.37432 7.59316 5.37432C7.64062 5.32686 7.68808 5.27941 7.73553 5.27941C7.78299 5.23195 7.83045 5.18449 7.87791 5.18449C7.92537 5.13703 7.97283 5.08957 8.02028 5.08957C8.06774 5.04211 8.1152 4.99466 8.16266 4.99466C8.21012 4.9472 8.25758 4.89974 8.30503 4.89974C8.35249 4.85228 8.39995 4.85228 8.44741 4.80482C8.49487 4.75736 8.54233 4.75736 8.58978 4.70991C8.63724 4.66245 8.6847 4.66245 8.73216 4.61499C8.77962 4.56753 8.82708 4.56753 8.87453 4.52007C8.92199 4.47261 8.96945 4.47261 9.01691 4.42516C9.06437 4.3777 9.11183 4.3777 9.15928 4.33024C9.20674 4.28278 9.2542 4.28278 9.30166 4.23532C9.34912 4.18786 9.39658 4.18786 9.44403 4.14041C9.49149 4.09295 9.53895 4.09295 9.58641 4.04549C9.63387 3.99803 9.68133 3.99803 9.72878 3.95057C9.77624 3.90311 9.8237 3.90311 9.87116 3.85566C9.91862 3.8082 9.96608 3.8082 10.0135 3.76074C10.061 3.71328 10.1085 3.71328 10.1559 3.66582C10.2034 3.61836 10.2508 3.61836 10.2983 3.57091C10.3457 3.52345 10.3932 3.52345 10.4407 3.47599C10.4881 3.42853 10.5356 3.42853 10.583 3.38107C10.6305 3.33361 10.678 3.33361 10.7254 3.28615C10.7729 3.2387 10.8203 3.2387 10.9152 3.19124C10.9627 3.14378 11.0102 3.14378 11.1051 3.09632C11.1525 3.04886 11.2 3.04886 11.2949 3.00141C11.3424 3.00141 11.3898 2.95395 11.4847 2.95395C11.5322 2.95395 11.5797 2.90649 11.6746 2.90649C11.722 2.90649 11.7695 2.85903 11.8644 2.85903C11.9119 2.85903 11.9593 2.81157 12.0542 2.81157C12.1017 2.81157 12.1492 2.76411 12.2441 2.76411C12.2915 2.76411 12.339 2.71665 12.4339 2.71665C12.4814 2.71665 12.5288 2.6692 12.6237 2.6692C12.6712 2.6692 12.7187 2.62174 12.8136 2.62174C12.861 2.62174 12.9085 2.57428 13.0034 2.57428C13.0509 2.57428 13.1458 2.52682 13.1932 2.52682C13.2407 2.52682 13.3356 2.47936 13.3831 2.47936C13.4305 2.47936 13.5255 2.4319 13.5729 2.4319C13.6204 2.4319 13.7153 2.38445 13.7627 2.38445C13.8102 2.38445 13.9051 2.33699 13.9526 2.33699C14 2.33699 14.095 2.28953 14.1424 2.28953C14.1899 2.28953 14.2848 2.24207 14.3322 2.24207C14.3797 2.24207 14.4746 2.19461 14.5221 2.19461C14.5695 2.19461 14.6645 2.19461 14.7119 2.14715C14.7594 2.14715 14.8543 2.14715 14.9017 2.0997C14.9492 2.0997 15.0441 2.0997 15.0916 2.05224C15.139 2.05224 15.234 2.05224 15.2814 2.00478C15.3289 2.00478 15.4238 2.00478 15.4712 1.95732C15.5187 1.95732 15.6136 1.95732 15.6611 1.90986C15.7085 1.90986 15.8035 1.90986 15.8509 1.90986C15.8984 1.90986 15.9933 1.90986 16.0407 1.90986C16.0882 1.90986 16.1831 1.90986 16.2306 1.90986C16.278 1.90986 16.373 1.90986 16.4204 1.90986C16.4679 1.90986 16.5628 1.90986 16.6102 1.90986C16.6577 1.90986 16.7526 1.90986 16.8001 1.90986C16.8475 1.90986 16.9425 1.90986 16.9899 1.90986C17.0374 1.90986 17.1323 1.90986 17.1797 1.90986C17.2272 1.90986 17.3221 1.90986 17.3696 1.90986C17.417 1.90986 17.512 1.90986 17.5594 1.90986C17.9865 1.90986 18.3662 1.90986 18.7933 1.95732V0.153904C18.3662 0.106445 17.9865 0.106445 17.5594 0.106445C12.9085 0.106445 8.73216 1.90986 5.59991 4.85228C5.03041 5.37432 4.50837 5.99128 3.98632 6.56078H6.4067L6.31178 6.51332ZM20.1696 2.05224C23.4442 2.62174 26.3867 4.18786 28.6172 6.41841C29.8986 7.69978 30.9427 9.17099 31.702 10.7846H33.6478C31.3223 5.23195 26.2443 1.15053 20.1222 0.24882V2.05224H20.1696Z" fill="#F32044"/>
<path d="M125.622 5.65913C126.524 6.18117 127.378 6.89305 127.9 7.69984C128.422 6.89305 129.229 6.22863 130.131 5.70659C131.127 5.13709 132.314 4.75742 133.358 4.75742C135.256 4.75742 136.917 5.46929 138.151 6.65575C139.338 7.84221 140.097 9.50325 140.097 11.3541V20.6085H137.866V20.3712C137.866 19.517 137.866 18.4254 137.866 17.3813C137.866 16.4322 137.866 15.4355 137.866 14.344C137.866 13.7745 137.866 13.2525 137.866 12.8728C137.866 12.3982 137.866 11.8762 137.819 11.4016C137.819 10.1677 137.344 9.07613 136.538 8.26934C135.731 7.46255 134.639 6.98796 133.405 6.98796C132.219 6.98796 131.08 7.46255 130.32 8.26934C129.514 9.07613 129.039 10.1677 128.992 11.4016V20.656H126.761V11.4016C126.761 10.1677 126.287 9.07613 125.48 8.26934C124.673 7.46255 123.581 6.98796 122.347 6.98796C121.161 6.98796 120.022 7.46255 119.263 8.26934C118.456 9.07613 117.981 10.1677 117.934 11.4016V20.656H115.703V11.4016C115.703 9.55071 116.463 7.88967 117.649 6.70321C118.836 5.51675 120.497 4.75742 122.347 4.75742C123.392 4.75742 124.578 5.13709 125.622 5.70659V5.65913ZM43.709 14.0118V4.70996H45.9395V10.6897C45.9395 11.3067 45.9395 11.9236 45.9395 12.3508C45.9395 12.9203 45.9395 13.4423 45.987 14.0118C45.987 15.2457 46.4616 16.3373 47.2684 17.144C48.0752 17.9508 49.1667 18.4254 50.3532 18.4254C51.5871 18.4254 52.6786 17.9508 53.4854 17.144C54.2922 16.3373 54.7668 15.2457 54.7668 14.0118V4.70996H56.9973L57.0448 14.0118C57.0448 15.8627 56.2854 17.5237 55.099 18.7102C53.9125 19.8966 52.204 20.656 50.4006 20.656C48.5972 20.656 46.9362 19.8966 45.7022 18.7102C44.5158 17.5237 43.7564 15.8627 43.7564 14.0118H43.709ZM73.2281 11.3067V20.656H70.9975V11.4016C70.9975 10.1677 70.5229 9.07613 69.7162 8.26934C68.9094 7.46255 67.8178 6.98796 66.5839 6.98796C65.3025 6.98796 64.1635 7.41509 63.3567 8.22188C62.5974 8.98121 62.1228 10.0253 62.0754 11.4016L62.1228 20.7034H59.8923V11.4016C59.8923 9.31342 60.6042 7.7473 61.6482 6.65575C62.8822 5.37438 64.6856 4.75742 66.3941 4.75742H66.4415C68.2449 4.75742 70.0009 5.37438 71.2823 6.65575C72.3738 7.7473 73.0857 9.31342 73.0857 11.4016L73.2281 11.3067ZM76.1705 20.4187V4.70996H78.401V20.656H76.1705V20.4187ZM83.6689 7.03542C85.0927 5.61167 87.0859 4.70996 89.269 4.70996C90.8351 4.70996 92.3538 5.18454 93.5877 5.99134C94.8691 6.79813 95.9132 7.98459 96.5301 9.40834L96.625 9.64563L94.5843 10.4999L94.4894 10.31C94.0148 9.31342 93.303 8.50663 92.3538 7.88967C91.4521 7.32017 90.408 6.98796 89.269 6.98796C87.7029 6.98796 86.2791 7.60492 85.235 8.649C84.191 9.69309 83.574 11.1168 83.574 12.7304C83.574 14.344 84.191 15.7678 85.235 16.8118C86.2791 17.8559 87.7029 18.4729 89.269 18.4729C90.408 18.4729 91.4521 18.1407 92.3538 17.5712C93.2555 17.0017 94.0148 16.1474 94.4894 15.1508L94.5843 14.961L96.625 15.8627L96.5301 16.1C95.8657 17.4763 94.8691 18.6627 93.5877 19.4695C92.3538 20.2763 90.8826 20.7034 89.3165 20.7034C87.1334 20.7034 85.1401 19.8017 83.7164 18.378C82.2926 16.9542 81.3909 14.961 81.3909 12.7304C81.3909 10.5473 82.2926 8.55409 83.7164 7.08288L83.6689 7.03542ZM99.4725 14.0118V4.70996H101.703V10.6897C101.703 11.3067 101.703 11.9236 101.703 12.3508C101.703 12.9203 101.703 13.4423 101.751 14.0118C101.751 15.2457 102.225 16.3373 103.032 17.144C103.839 17.9508 104.93 18.4254 106.117 18.4254C107.351 18.4254 108.442 17.9508 109.249 17.144C110.056 16.3373 110.53 15.2457 110.53 14.0118V4.70996H112.761L112.808 14.0118C112.808 15.8627 112.049 17.5237 110.863 18.7102C109.676 19.8966 107.968 20.656 106.164 20.656C104.361 20.656 102.7 19.8966 101.466 18.7102C100.279 17.5237 99.52 15.8627 99.52 14.0118H99.4725Z" fill="#F32044"/>
<path d="M64.2585 30.5746H63.4991V29.4831C63.1669 29.9102 62.8347 30.2424 62.4076 30.4322C62.0754 30.6221 61.6482 30.6695 61.2211 30.6695C60.3194 30.6695 59.6075 30.3848 58.9906 29.8153C58.3736 29.2458 58.0889 28.4865 58.0889 27.5847C58.0889 26.8254 58.3262 26.1135 58.8482 25.544C59.4177 24.8796 60.2245 24.5474 61.1737 24.5474C61.7432 24.5474 62.1703 24.6423 62.55 24.8322C62.9296 25.022 63.2144 25.3067 63.4517 25.6864V24.6898H64.211V30.5272L64.2585 30.5746ZM63.4991 27.6797C63.4991 27.0152 63.2618 26.4457 62.8347 26.0186C62.4076 25.544 61.8381 25.3067 61.1737 25.3067C60.5567 25.3067 59.9872 25.544 59.5601 25.9712C59.0855 26.4457 58.8957 26.9678 58.8957 27.6797C58.8957 28.3441 59.133 28.8661 59.5601 29.3407C60.0347 29.7678 60.5567 30.0051 61.2211 30.0051C61.8381 30.0051 62.4076 29.7678 62.8347 29.3407C63.2618 28.9136 63.4991 28.3441 63.4991 27.7271V27.6797ZM74.1298 26.4932H73.2281C73.0383 26.1135 72.7535 25.8288 72.4213 25.5915C72.0891 25.4017 71.7094 25.2593 71.2823 25.2593C70.6179 25.2593 70.0484 25.4966 69.6212 25.9237C69.1941 26.3508 68.9568 26.9203 68.9568 27.5847C68.9568 28.2492 69.1941 28.8187 69.6212 29.2458C70.0958 29.7204 70.6179 29.9102 71.2823 29.9102C71.7094 29.9102 72.0416 29.8153 72.4213 29.6255C72.7535 29.4356 73.0382 29.1509 73.2755 28.7712H74.1298C73.8925 29.2932 73.5603 29.7204 73.1806 30.0051C72.6586 30.3848 72.0416 30.6221 71.2823 30.6221C70.3331 30.6221 69.5738 30.2899 69.0043 29.6729C68.4822 29.1034 68.1975 28.3915 68.1975 27.5847C68.1975 26.8254 68.4822 26.1135 69.0043 25.544C69.6212 24.8796 70.3806 24.5474 71.3297 24.5474C71.9942 24.5474 72.5637 24.7372 73.0857 25.0695C73.6077 25.4017 73.94 25.8762 74.1772 26.4457L74.1298 26.4932ZM84.0011 30.5746H83.2418V29.4831C82.9096 29.9102 82.5774 30.2424 82.1503 30.4322C81.818 30.6221 81.3909 30.6695 80.9638 30.6695C80.0621 30.6695 79.3502 30.3848 78.7333 29.8153C78.1163 29.2458 77.8315 28.4865 77.8315 27.5847C77.8315 26.8254 78.0688 26.1135 78.5909 25.544C79.1604 24.8796 79.9672 24.5474 80.9163 24.5474C81.4858 24.5474 81.913 24.6423 82.2926 24.8322C82.6723 25.022 82.957 25.3067 83.1943 25.6864V24.6898H83.9537V30.5272L84.0011 30.5746ZM83.2418 27.6797C83.2418 27.0152 83.0045 26.4457 82.5774 26.0186C82.1503 25.544 81.5807 25.3067 80.9163 25.3067C80.2994 25.3067 79.7299 25.544 79.3027 25.9712C78.8282 26.4457 78.6383 26.9678 78.6383 27.6797C78.6383 28.3441 78.8756 28.8661 79.3027 29.3407C79.7773 29.7678 80.2994 30.0051 80.9638 30.0051C81.5808 30.0051 82.1503 29.7678 82.5774 29.3407C83.0045 28.9136 83.2418 28.3441 83.2418 27.7271V27.6797ZM94.0623 30.5746H93.303V29.5305C93.0182 29.9102 92.686 30.195 92.3063 30.4322C91.9267 30.6221 91.4521 30.7645 91.025 30.7645C90.1707 30.7645 89.4114 30.4797 88.7944 29.8627C88.1775 29.2932 87.8927 28.5339 87.8927 27.6322C87.8927 26.8729 88.13 26.2085 88.6521 25.639C89.2215 24.9745 90.0283 24.6423 90.9775 24.6423C91.4995 24.6423 91.9741 24.7372 92.3063 24.9271C92.686 25.1169 92.9708 25.4017 93.208 25.7813V22.6965H94.0148V30.5746H94.0623ZM93.303 27.6797C93.303 27.0152 93.0657 26.4457 92.6385 25.9712C92.2114 25.4966 91.6419 25.3067 90.9775 25.3067C90.3131 25.3067 89.791 25.544 89.3639 25.9712C88.9368 26.4457 88.6995 26.9678 88.6995 27.6797C88.6995 28.3441 88.9368 28.9136 89.3639 29.3407C89.8385 29.7678 90.3605 30.0051 91.025 30.0051C91.6419 30.0051 92.2114 29.7678 92.6385 29.3407C93.0657 28.9136 93.303 28.3441 93.303 27.6797ZM103.981 27.917H98.7607C98.7607 28.4865 98.998 28.961 99.4251 29.3882C99.8522 29.7678 100.374 30.0051 100.991 30.0051C101.418 30.0051 101.845 29.8627 102.225 29.6255C102.605 29.3882 102.842 29.056 103.032 28.6763H103.839C103.601 29.2932 103.222 29.8153 102.747 30.1475C102.225 30.5272 101.656 30.6695 100.991 30.6695C100.137 30.6695 99.4251 30.3848 98.8081 29.8153C98.2386 29.2458 97.9539 28.5339 97.9539 27.6322C97.9539 26.8254 98.1912 26.161 98.7132 25.544C99.2827 24.8796 100.042 24.5474 100.991 24.5474C101.988 24.5474 102.795 24.9271 103.317 25.639C103.744 26.2559 103.981 27.0152 103.981 27.8695V27.917ZM103.127 27.2051C103.032 26.6356 102.747 26.161 102.368 25.8288C101.988 25.4966 101.513 25.3067 100.991 25.3067C100.422 25.3067 99.9471 25.4966 99.52 25.8288C99.0929 26.161 98.8556 26.6356 98.7607 27.2051H103.127ZM116.558 30.5272H115.751V27.2051C115.751 26.4932 115.561 25.9712 115.181 25.639C114.897 25.4017 114.564 25.2593 114.137 25.2593C113.9 25.2593 113.663 25.3067 113.473 25.4017C113.283 25.4966 113.093 25.6389 112.951 25.7813C112.808 25.9712 112.666 26.161 112.666 26.3983C112.619 26.6356 112.619 26.8729 112.619 27.1576V30.4797H111.812V27.1576C111.812 26.5881 111.669 26.1135 111.432 25.7813C111.147 25.4017 110.768 25.2593 110.246 25.2593C109.724 25.2593 109.344 25.4491 109.059 25.7813C108.774 26.1135 108.679 26.5881 108.679 27.1576V30.4797H107.873V24.6423H108.632V25.4017C108.822 25.1169 109.059 24.8796 109.344 24.7372C109.629 24.5949 109.913 24.4999 110.293 24.4999C110.815 24.4999 111.29 24.6423 111.669 24.9271C111.954 25.1169 112.144 25.3542 112.286 25.639C112.476 25.3067 112.761 25.022 113.141 24.7847C113.473 24.5949 113.852 24.4999 114.28 24.4999C114.849 24.4999 115.371 24.6898 115.798 25.022C116.368 25.4966 116.652 26.2084 116.652 27.1576V30.4797L116.558 30.5272ZM125.622 24.6898L122.253 32.5679H121.398L122.347 30.2424L120.069 24.6898H121.019L122.87 29.2458L124.768 24.6898H125.622Z" fill="#F32044"/>
</g>
<defs>
<clipPath id="clip0_173_288">
<rect width="140.097" height="35" fill="white"/>
</clipPath>
</defs>
</svg>
